<?xml version="1.0" encoding="UTF-8"?>
<svg xmlns="http://www.w3.org/2000/svg" id="Livello_2" data-name="Livello 2" viewBox="0 0 235.31 51.79">
  <defs>
    <style>
      .cls-1 {
        fill: #5b5859;
        stroke-width: 0px;
      }
    </style>
  </defs>
  <g id="Livello_1-2" data-name="Livello 1">
    <g>
      <path class="cls-1" d="m68.92,39.22c2.34.05,4.8.24,5.98-.88.24-2.36-.41-3.86-1.34-5.07-5.13-1.65-3.87,3.18-4.64,5.95m1.96-18.37c1.09-.59,3.18-.17,4.15-.89.15-2.13.02-3.98-.89-5.06-4.05-1.22-4.37,3.45-3.25,5.95m18.8,6.1c2.14,2.25,3.37,4.09,3.63,7.38,1.63,21.04-23.98,15.44-41.02,16.27-.29-13.42.39-29.84.76-44.12,9.31-3.23,25.02-11.27,34.49-2.53,3.66,3.39,10.36,20.43,2.14,23"></path>
      <path class="cls-1" d="m14.25,32.02c1.69.15,4.07-.39,5.06.46-1.11-2.88-1.26-6.71-3.68-8.27-.3,2.77-1.41,4.71-1.38,7.81M2.76,2.15c10.16.45,20.59,1.38,30.8.46.57,2.8,1.56,5.19,1.38,8.74-1.9.71-4.04,1.17-6.43,1.38,3.34,11.67,7.33,22.7,10.57,34.48-5.67,1.22-10.06,3.73-16.09,4.6-1.36-2.17-2.15-4.9-2.76-7.81-2.69-.53-5.92-.52-9.2-.46-.99,2.22-.41,6.03-1.38,8.27-3.22-.77-7.32-.65-9.65-2.3,1.85-11.79,3.59-23.69,6.89-34.02-.86-.97-3.67,0-4.14-1.38V2.15Z"></path>
      <path class="cls-1" d="m120.63,39.57c2.34.06,4.8.24,5.98-.88.24-2.37-.41-3.85-1.35-5.07-5.13-1.66-3.87,3.18-4.64,5.94m1.97-18.37c1.09-.6,3.18-.17,4.14-.89.16-2.13.02-3.98-.88-5.07-4.05-1.22-4.37,3.44-3.26,5.95m18.8,6.1c2.14,2.25,3.37,4.09,3.63,7.38,1.63,21.04-23.98,15.44-41.02,16.27-.29-13.41.39-29.84.76-44.12,9.31-3.23,25.02-11.27,34.49-2.52,3.66,3.38,10.35,20.43,2.14,23"></path>
      <path class="cls-1" d="m179.27,5.03c-.02,2.3-.03,4.6-.05,6.89-.67.7-2.36.39-3.68.43-.07,8.83,2.82,18.46,2.56,28.98.11.96,2.02.14,2.29.93-.02,3.07-.04,6.13-.06,9.19-6.49.84-15.01-.04-21.14-1.06.02-1.84.03-3.68.04-5.52.5-.89,2.12-.63,2.77-1.36-.77-9.28-.19-19.9-.25-29.87-.86-.98-3.67-.04-4.13-1.41.01-2.3.03-4.6.05-6.9,4.52-3.3,16.5-2.91,21.61-.31"></path>
      <path class="cls-1" d="m210.59,31.97c1.69.16,4.07-.36,5.06.5-1.09-2.89-1.21-6.72-3.62-8.3-.32,2.77-1.45,4.71-1.43,7.8m-11.28-29.96c10.16.52,20.58,1.52,30.79.67.55,2.81,1.52,5.2,1.32,8.75-1.9.69-4.04,1.14-6.44,1.33,3.26,11.69,7.17,22.75,10.33,34.55-5.68,1.18-10.08,3.66-16.12,4.48-1.34-2.18-2.11-4.91-2.7-7.83-2.69-.55-5.91-.56-9.19-.52-1.01,2.21-.45,6.03-1.44,8.27-3.21-.79-7.31-.7-9.63-2.37,1.93-11.77,3.74-23.66,7.13-33.96-.86-.99-3.67-.04-4.13-1.41.03-3.98.06-7.97.08-11.95"></path>
    </g>
  </g>
</svg>
