<?xml version="1.0" encoding="UTF-8"?>
<svg xmlns="http://www.w3.org/2000/svg" id="Livello_2" viewBox="0 0 783.89 480.34">
  <defs>
    <style>.cls-1{fill:#414042;}.cls-1,.cls-2,.cls-3,.cls-4{stroke-width:0px;}.cls-2{fill:#c8102e;}.cls-3{fill:#fff;}.cls-4{fill:#012169;}</style>
  </defs>
  <g id="Livello_2-2">
    <g id="Livello_1-2">
      <path class="cls-4" d="m12.5,12.5h758.88v455.33H12.5V12.5Z"></path>
      <path class="cls-3" d="m101.43,12.5l289.32,171.7L678.9,12.5h92.49v58.81l-284.58,169.8,284.58,168.85v57.86h-94.86l-284.58-169.8L108.55,467.83H12.5v-56.92l283.4-168.85L12.5,73.21V12.5h88.93Z"></path>
      <path class="cls-2" d="m515.26,279.06l256.12,150.83v37.94l-321.34-188.77h65.22Zm-218.18,18.97l7.11,33.2-227.67,136.6H12.5l284.58-169.8h0ZM771.38,12.5v2.85l-295.25,178.34,2.37-41.74L712.1,12.5h59.29,0ZM12.5,12.5l283.4,166.95h-71.15L12.5,52.34V12.5Z"></path>
      <path class="cls-3" d="m298.27,12.5v455.33h189.72V12.5h-189.72ZM12.5,164.28v151.78h758.88v-151.78H12.5Z"></path>
      <path class="cls-2" d="m12.5,195.58v91.07h758.88v-91.07H12.5ZM336.21,12.5v455.33h113.83V12.5h-113.83,0Z"></path>
      <path class="cls-1" d="m770.69,480.33H13.2c-7.28,0-13.2-5.92-13.2-13.2V13.2C0,5.92,5.92,0,13.2,0h757.49c7.28,0,13.2,5.92,13.2,13.2v453.94c0,7.28-5.92,13.2-13.2,13.2h0ZM25,455.33h733.88V25H25v430.33Z"></path>
    </g>
  </g>
</svg>
