<?xml version="1.0" encoding="UTF-8"?>
<svg xmlns="http://www.w3.org/2000/svg" id="Livello_2" viewBox="0 0 783.16 480">
  <defs>
    <style>.cls-1{fill:#f9f9f9;}.cls-1,.cls-2,.cls-3,.cls-4{stroke-width:0px;}.cls-2{fill:#414042;}.cls-3{fill:#d34a4b;}.cls-4{fill:#00936b;}</style>
  </defs>
  <g id="Livello_2-2">
    <g id="Livello_1-2">
      <g id="Flag17">
        <rect class="cls-4" x="517.89" y="12.63" width="252.63" height="454.74"></rect>
        <path class="cls-2" d="m770.53,480h-252.63c-6.98,0-12.63-5.66-12.63-12.63V12.63c0-6.98,5.66-12.63,12.63-12.63h252.63c6.98,0,12.63,5.66,12.63,12.63v454.74c0,6.98-5.66,12.63-12.63,12.63Zm-240-25.26h227.37V25.26h-227.37v429.47h0Z"></path>
        <rect class="cls-3" x="12.63" y="12.63" width="252.63" height="454.74"></rect>
        <path class="cls-2" d="m265.26,480H12.63c-6.98,0-12.63-5.66-12.63-12.63V12.63C0,5.66,5.66,0,12.63,0h252.63c6.98,0,12.63,5.66,12.63,12.63v454.74c0,6.98-5.66,12.63-12.63,12.63Zm-240-25.26h227.37V25.26H25.26v429.47h0Z"></path>
        <rect class="cls-1" x="265.26" y="12.63" width="252.63" height="454.74"></rect>
        <path class="cls-2" d="m517.89,480h-252.63c-6.98,0-12.63-5.66-12.63-12.63V12.63c0-6.98,5.66-12.63,12.63-12.63h252.63c6.98,0,12.63,5.66,12.63,12.63v454.74c0,6.98-5.66,12.63-12.63,12.63Zm-240-25.26h227.37V25.26h-227.37v429.47h0Z"></path>
      </g>
    </g>
  </g>
</svg>
