<?xml version="1.0" encoding="UTF-8"?>
<svg xmlns="http://www.w3.org/2000/svg" id="Livello_2" data-name="Livello 2" viewBox="0 0 186.96 52.44">
  <defs>
    <style>
      .cls-1 {
        fill-rule: evenodd;
      }

      .cls-1, .cls-2 {
        fill: #5b5859;
        stroke-width: 0px;
      }
    </style>
  </defs>
  <g id="Livello_1-2" data-name="Livello 1">
    <g>
      <path class="cls-2" d="m29.32,12.2c.02-3.06.04-6.12.07-9.19,3.98-.84,11.57-.27,14.87-.34.11,2.1.04,5.73.38,8.75-1.49.7-4.12.24-5.27,1.28-.68,12.85,1.73,24.94.18,37.18-2.9,1.45-8.32.86-11.38-.07-3.34-11.2-9.08-20.01-13.79-29.85.42,6.51-1.49,13.67-.14,20.13.75,3.57,5.08,6.8,2.99,10.52-4.44,1.28-9.55-.39-13.12-1.4-.1-10.13.56-24.53-.19-35.44-.46-1.59-3.09-1.01-3.93-2.21C-.06,8.39.12,5.49.95,3.25,8.3,4.35,15.84-.48,21.52,1.2c4.65,1.38,4.12,8.12,7.8,10.99"></path>
      <path class="cls-2" d="m74.71,32.42c-1.14-2.67-6.49-11.26-7.54-3.68-.44,3.16,1.35,9.94,3.54,13.03,1.37,1.93,4.11,3.37,6.64,2.46-.63-4.14-.96-7.88-2.64-11.8m-6.85-14.56c5.5-.68,10.69.97,13.28,2.51,5.75,3.42,7.3,15.25,4.69,22.11-1.08,2.84-5.96,8.62-10.35,9.31-3.25.51-9.94-.3-13.59-2.21-9.26-4.84-7.97-26.65,2.33-31.13,1.06-.46,2.03-.38,3.63-.58"></path>
      <path class="cls-2" d="m115.79,19.9c1.65-5.52,2.25-12.11,4.49-17.04,5.17.21,11.95-.16,15.75.11.7,1.49.67,5.52-.05,7-2.3.9-5.49.89-7.89,1.7-4.44,11.8-5.93,26.59-9.02,39.75-7.6-10.75-14.17-22.52-20.33-34.7-3.54-.28-8.12.47-10.93-.51-.81-3.69-1.27-7.73-1.23-12.26,2.47-2.19,7.66-1.63,12.26-1.67,6.01,5.52,11.64,11.41,16.94,17.62"></path>
      <path class="cls-2" d="m162.32,32.67c1.68.16,4.06-.37,5.04.49-1.08-2.88-1.21-6.7-3.61-8.27-.32,2.76-1.44,4.69-1.43,7.78m-11.25-29.88c10.13.52,20.52,1.52,30.71.67.55,2.8,1.51,5.18,1.31,8.71-1.89.7-4.03,1.14-6.42,1.33,3.26,11.67,7.16,22.69,10.31,34.45-5.66,1.18-10.05,3.65-16.07,4.48-1.34-2.17-2.11-4.9-2.7-7.81-2.68-.55-5.89-.56-9.16-.53-1.01,2.21-.44,6.02-1.43,8.24-3.2-.79-7.29-.7-9.61-2.35,1.94-11.74,3.74-23.6,7.11-33.87-.86-.98-3.66-.03-4.11-1.41.02-3.97.05-7.94.08-11.92"></path>
      <path class="cls-1" d="m60.75,15.09l-5.84-10.14s-1.43-2.2.29-3.35c1.72-1.15,5.08-2.58,6.89-.67,1.81,1.91,5.54,9.28,5.54,10.33s0,3.16-1.72,3.83c-1.72.67-4.71.8-5.17,0"></path>
    </g>
  </g>
</svg>
